<svg fill="none" height="24" viewBox="0 0 24 24" width="24" xmlns="http://www.w3.org/2000/svg"><g fill="#292d32"><path d="m16.19 2h-8.38c-3.64 0-5.81 2.17-5.81 5.81v8.37c0 3.65 2.17 5.82 5.81 5.82h8.37c3.64 0 5.81-2.17 5.81-5.81v-8.38c.01-3.64-2.16-5.81-5.8-5.81z" opacity=".4"/><path d="m11.9995 10.6899c-.72 0-1.31.59-1.31 1.31s.59 1.31 1.31 1.31 1.31-.59 1.31-1.31-.59-1.31-1.31-1.31z"/><path d="m6.99945 10.6899c-.72 0-1.31.59-1.31 1.31s.59 1.31 1.31 1.31 1.31-.59 1.31-1.31-.59-1.31-1.31-1.31z"/><path d="m16.9995 10.6899c-.72 0-1.31.59-1.31 1.31s.59 1.31 1.31 1.31 1.31-.59 1.31-1.31-.59-1.31-1.31-1.31z"/></g></svg>