<?xml version="1.0" encoding="iso-8859-1"?>
<!-- Uploaded to: SVG Repo, www.svgrepo.com, Generator: SVG Repo Mixer Tools -->
<svg fill="#000000" height="800px" width="800px" version="1.1" id="Layer_1" xmlns="http://www.w3.org/2000/svg" xmlns:xlink="http://www.w3.org/1999/xlink" 
	 viewBox="0 0 218.207 218.207" xml:space="preserve">
<g>
	<g>
		<g>
			<path d="M214.31,105.207c-2.152,0-3.897,1.743-3.897,3.897c0,26.668-10.373,50.946-27.276,69.055V167.11
				c0-13.136-10.771-23.825-24.011-23.825h-21.941l-7.789-15.899c11.747-6.315,20.307-17.945,22.182-31.75
				c4.877-2.089,8.18-6.937,8.18-12.458v-2.702c0-5.339-3.134-10.084-7.793-12.272V35.069c0-2.154-1.745-3.897-3.897-3.897H96.124
				C79.9,31.172,66.7,44.384,66.7,60.625V68c-4.878,2.082-8.251,6.96-8.251,12.477v2.702c0,5.685,3.56,10.67,8.664,12.645
				c1.839,13.064,9.659,24.189,20.497,30.653c-0.093,0.14-0.227,0.239-0.303,0.394l-8.042,16.416H60.002
				c-13.516,0-24.933,11.111-24.933,24.266v10.607c-16.902-18.109-27.276-42.387-27.276-69.055
				c0-55.864,45.448-101.31,101.31-101.31c2.152,0,3.897-1.743,3.897-3.897S111.255,0,109.103,0C48.943,0,0,48.943,0,109.103
				c0,32.14,13.975,61.069,36.16,81.054c0.065,0.068,0.141,0.119,0.211,0.182c19.317,17.313,44.812,27.867,72.733,27.867
				c60.161,0,109.103-48.943,109.103-109.103C218.207,106.951,216.462,105.207,214.31,105.207z M74.586,92.459
				c-0.135-1.842-1.543-3.337-3.373-3.577c-2.835-0.376-4.972-2.827-4.972-5.704v-2.702c0-2.899,2.062-5.293,4.903-5.696
				c1.922-0.274,3.349-1.918,3.349-3.858V60.625c0-11.944,9.703-21.659,21.631-21.659h48.048v32.036c0,1.865,1.322,3.47,3.153,3.824
				c2.688,0.525,4.64,2.9,4.64,5.651v2.702c0,2.793-1.971,5.171-4.688,5.662c-1.752,0.316-3.067,1.781-3.194,3.558
				c-1.296,18.105-16.56,32.291-34.751,32.291C91.179,124.69,75.918,110.53,74.586,92.459z M175.347,185.66
				c-17.776,15.401-40.93,24.753-66.241,24.753s-48.467-9.351-66.244-24.752v-18.109c0-8.775,8.01-16.473,17.141-16.473h21.692
				c1.488,0,2.844-0.845,3.499-2.181l9.112-18.596c0.085-0.173,0.083-0.358,0.141-0.537c4.652,1.75,9.669,2.717,14.886,2.717
				c4.481,0,8.8-0.74,12.881-2.045l9.045,18.46c0.655,1.336,2.011,2.181,3.499,2.181h24.371c8.942,0,16.218,7.192,16.218,16.032
				V185.66z"/>
			<path d="M188.983,57.113c0.388,0.026,0.774,0.042,1.166,0.042c8.02-0.004,16.519-5.578,21.551-14.293
				c3.271-5.666,4.735-11.975,4.125-17.763c-0.66-6.248-3.621-11.191-8.334-13.912c-5.417-3.124-12.183-2.755-18.509,0.902
				c-6.324-3.657-13.092-4.026-18.509-0.902c-4.713,2.721-7.673,7.664-8.334,13.912c-0.611,5.788,0.854,12.097,4.125,17.763
				C171.543,52.006,180.636,57.677,188.983,57.113z M169.892,25.918c0.39-3.706,1.981-6.537,4.479-7.98
				c3.341-1.929,7.953-1.202,12.336,1.952c1.358,0.982,3.192,0.982,4.551,0c4.382-3.155,8.99-3.885,12.336-1.952
				c2.498,1.442,4.089,4.273,4.479,7.98c0.44,4.163-0.67,8.798-3.124,13.048c-3.801,6.587-10.246,10.906-15.617,10.358
				c-0.118-0.011-0.234-0.015-0.35-0.015c-0.116,0-0.232,0.004-0.35,0.015c-5.381,0.556-11.813-3.771-15.617-10.358
				C170.562,34.716,169.452,30.081,169.892,25.918z"/>
		</g>
	</g>
</g>
</svg>